<svg xmlns="http://www.w3.org/2000/svg" width="512" height="512" viewBox="0 0 24 24"><g fill="none"><path fill="#000" d="M10.093 5.46a.73.73 0 0 1 .63-.617c.3-.077 1.213-.202 2.413-.073c.231.03.66.206.711.669a6.8 6.8 0 0 1 2.1 1.002c.214-.128.617-.231 1.02.172c.274.24 1.003 1.016 1.727 2.211c.15.257.313.845-.171 1.162c.25.812.346 1.664.283 2.511c.235.116.535.373.471.793c-.017.291-.184 1.114-.694 2.096a.8.8 0 0 1-.887.364a7 7 0 0 1-1.093 1.273c.103.24.15.694-.296.998a8.3 8.3 0 0 1-2.314 1.157c-.257.073-.806.086-1.05-.44a7 7 0 0 1-1.273.055c-.214.523-.797.531-1.08.463a9.9 9.9 0 0 1-2.614-1.08a.823.823 0 0 1-.416-1.02a7 7 0 0 1-1.084-1.179c-.545.15-.905-.309-1.02-.574a9.8 9.8 0 0 1-.729-2.73c-.073-.527.223-.802.467-.913a7 7 0 0 1 .412-2.117c-.373-.322-.249-.806-.129-1.024A8.4 8.4 0 0 1 7.041 6.63a.744.744 0 0 1 .943-.129a6.8 6.8 0 0 1 2.109-1.041"/><path fill="#D9B86C" d="M13.071 5.541a5.5 5.5 0 0 0-2.237.043l-.154.652l2.649-.052zm3.249 1.56l-.549.232l1.86 2.678L18 9.33a6.3 6.3 0 0 0-1.68-2.229m1.594 7.839l-.703.12l.703-2.37l.557.493a7 7 0 0 1-.557 1.757m-4.243 3.458l-.587-.47l2.756-1.424v.857a6.3 6.3 0 0 1-2.169 1.037m-2.764.09l.493-.514l-3.12-1.397v.827a6.5 6.5 0 0 0 2.627 1.084m-4.624-3.317h.673l-.823-3.162l-.652.454c.142 1.466.596 2.417.802 2.708m-.15-6.107l.377.635l1.86-2.272l-.767-.244a5.9 5.9 0 0 0-1.47 1.881"/><path fill="#EFDA8D" d="M12 18.034a6.064 6.064 0 0 0 6.069-6.06a6.064 6.064 0 0 0-6.07-6.06a6.064 6.064 0 0 0-6.068 6.06A6.064 6.064 0 0 0 12 18.034"/><path fill="#F4EEBE" d="M12 16.993a5.1 5.1 0 0 0 1.856-.352c.643.163 1.543-.137 2.275-.822c.93-.875 1.256-2.049.763-2.683a5.03 5.03 0 0 0-.175-2.915c.098-.625-.185-1.44-.802-2.117c-.746-.823-1.736-1.178-2.4-.925a5.036 5.036 0 0 0-6.549 4.791a5 5 0 0 0 1.188 3.24a2.34 2.34 0 0 0 1.17 1.586c.771.463 1.641.51 2.194.171q.237.026.48.026"/><path fill="#C29E58" d="M16.232 10.232c.366-.347.088-1.234-.621-1.98c-.709-.748-1.58-1.072-1.946-.725s-.087 1.234.621 1.981c.71.747 1.58 1.071 1.946.724"/><path fill="#A07E41" d="M13.517 8.109c.433-.043 1.076.282 1.629.857c.39.379.658.865.771 1.397c-.437.043-1.08-.283-1.628-.857a2.74 2.74 0 0 1-.772-1.397"/><path fill="#C29E58" d="M8.674 15.251c-.179.36.27.947 1.005 1.31c.734.365 1.475.368 1.654.008s-.271-.947-1.005-1.31c-.734-.365-1.475-.368-1.654-.008"/><path fill="#A07E41" d="M11.289 16.089c-.313.15-.883.085-1.45-.198a2.2 2.2 0 0 1-.96-.831c.314-.15.884-.086 1.45.197c.395.176.729.466.96.832"/><path fill="#C29E58" d="M13.324 15.974c.526.587 1.681.412 2.58-.39c.898-.803 1.2-1.93.674-2.517s-1.68-.412-2.58.39c-.898.803-1.2 1.93-.674 2.517"/><path fill="#A07E41" d="M15.986 12.741c0 .506-.429 1.243-1.14 1.873c-.6.536-1.248.866-1.74.922c-.206-.54.15-1.402.9-2.066c.664-.6 1.453-.87 1.98-.729"/><path fill="#C29E58" d="M10.024 13.26c1.297 0 2.349-1.094 2.349-2.443s-1.052-2.443-2.349-2.443s-2.348 1.094-2.348 2.443c0 1.35 1.051 2.443 2.348 2.443"/><path fill="#A07E41" d="M10.029 13.26a2.4 2.4 0 0 0 2.344-2.443c0-.428-.107-.836-.296-1.191a2.3 2.3 0 0 0-.549-.065a2.4 2.4 0 0 0-2.348 2.443c0 .429.107.836.3 1.192c.171.043.356.064.544.064z"/></g></svg>